<svg xmlns="http://www.w3.org/2000/svg" width="34" height="30" viewBox="0 0 34 30"><g><g opacity="-1"><g><path fill="none" stroke="#fff" stroke-miterlimit="20" stroke-width="2" d="M7.264 25.312a3.138 3.138 0 0 0-3.132-3.142A3.137 3.137 0 0 0 1 25.312a3.137 3.137 0 0 0 3.132 3.142 3.138 3.138 0 0 0 3.132-3.142z"/></g><g><path fill="none" stroke="#fff" stroke-miterlimit="20" stroke-width="2" d="M32.454 4.141A3.138 3.138 0 0 0 29.322 1a3.137 3.137 0 0 0-3.132 3.141 3.137 3.137 0 0 0 3.132 3.143 3.138 3.138 0 0 0 3.132-3.143z"/></g><g><path fill="none" stroke="#fff" stroke-miterlimit="20" stroke-width="2" d="M19.794 14.661a3.138 3.138 0 0 0-3.132-3.141 3.137 3.137 0 0 0-3.132 3.141 3.137 3.137 0 0 0 3.132 3.142 3.138 3.138 0 0 0 3.132-3.142z"/></g><g><path fill="none" stroke="#fff" stroke-linecap="round" stroke-miterlimit="20" stroke-width="2" d="M4.13 1.05v20.988"/></g><g><path fill="none" stroke="#fff" stroke-linecap="round" stroke-miterlimit="20" stroke-width="2" d="M16.66 17.8v10.471"/></g><g><path fill="none" stroke="#fff" stroke-linecap="round" stroke-miterlimit="20" stroke-width="2" d="M16.66 1.05v10.472"/></g><g><path fill="none" stroke="#fff" stroke-linecap="round" stroke-miterlimit="20" stroke-width="2" d="M29.19 7.28v20.988"/></g></g></g></svg>