<svg xmlns="http://www.w3.org/2000/svg" width="34" height="21" viewBox="0 0 34 21"><g><g opacity="-1"><g><path fill="none" stroke="#fff" stroke-miterlimit="20" stroke-width="2" d="M16.75 1C6.133 1 1.09 10.267 1.09 10.267v0s5.043 9.267 15.66 9.267c10.616 0 15.66-9.267 15.66-9.267v0S27.365 1 16.75 1z"/></g><g><path fill="none" stroke="#fff" stroke-miterlimit="20" stroke-width="2" d="M16.75 3.12c-3.812 0-6.9 3.079-6.9 6.878 0 3.798 3.088 6.877 6.9 6.877 3.812 0 6.902-3.079 6.902-6.877 0-3.8-3.09-6.878-6.902-6.878z"/></g><g><path fill="none" stroke="#fff" stroke-linecap="round" stroke-miterlimit="20" stroke-width="2" d="M14.458 8.52a2.725 2.725 0 0 0-.368 1.373c0 1.52 1.235 2.75 2.759 2.75"/></g></g></g></svg>